<svg xmlns="http://www.w3.org/2000/svg" width="530.659" height="530.659" xmlns:v="https://vecta.io/nano"><style><![CDATA[.B{fill:#313131}.C{fill:#2d2d2d}.D{fill:#343434}.E{fill:#8b8b8b}.F{fill:#fcfcfc}.G{fill:#f1f1f0}.H{fill:#b8b8b8}]]></style><path d="M175.556 18.391c.594-1.475 1.73-1.347 2.989-1.588.88.55 1.44.544 2.053-.343 3.596-1.637 7.124-2.951 10.952-4.46l11.968-3.14c3.446-.808 6.56-1.425 9.997-2.164l22.043-3.484 24.836-1.431 3.155-.01c1.697-.002 3.094-.003 4.897-.106 3.692-2.472 7.351-1.551 10.91-1.215 1.963.185 3.921.451 6.301.696 16.978 1.061 33.005 5.02 49.04 8.918 1.781.433 3.438 1.209 4.514 3.302-.544 2.666-2.401 2.236-4 2.173-2.497-.099-5.04-.289-7.378-1.145-7.994-2.93-16.799-2.248-24.676-5.642-.602-.259.16-.126-.483-.08-14.093.996-28.056-2.977-42.169-1.1-1.325.176-2.623.451-3.875.922-.781.294-1.854.548-2.091 1.257-1.446 4.331 2.169 7.664 2.491 11.727.167 2.109 2.323 1.96 4.023 1.905 7.476-.241 15.176-1.405 22.309 1.093 10.479 3.67 21.311 5.889 31.863 8.97 10.96 3.2 21.822 7.56 32.176 13.213 6.663 3.638 14.566 6.04 22.043 8.656 7.871 2.754 13.437 8.993 19.917 13.84.79.591 1.088 1.652.928 3.088-2.935 2.811-5.071.484-7.191-.797-19.477-11.774-40.24-20.449-62.292-26.046-5.477-1.39-11.06-2.288-16.952-3.503-1.616-.638-2.769-1.596-4.652-1.051-4.394-.34-8.481-.254-12.782-1.527-1.558-.733-2.784-.72-4.429-.214-2.527.421-4.733.721-6.802.268-8.722-1.911-17.418.32-26.526-.079-1.432-.13-2.434-.514-3.85-.179-4.507 1.114-8.715 1.685-13.318 1.939-1.22-.113-2.075-.356-3.263-.193-1.29.311-2.263.616-3.57.809-1.082.113-1.839.29-2.831.747-.875.274-1.477.295-2.354.089-.705-.135-.721-1.101-1.595-.431-.537.32-.894.395-1.551.38-.639.145-1.338-.867-1.599.56-3.288 1.82-6.603 2.434-10.392 2.53-2.587-1.55-5.041-.742-7.128-.169-6.872 1.884-13.816 3.628-20.064 7.339-4.576 2.718-10.261 2.866-14.688 6.033-5.604 4.01-12.274 6.071-17.672 10.717-5.044 4.342-11.134 7.763-18.315 7.889-.493.009-1.125.327-1.469.085-5.064-3.568-10.161-.452-15.235-.128-4.041.258-5.477-1.477-4.177-5.555 2.303-7.225 7.948-11.797 13.637-16.155 4.914-3.764 9.271-7.947 13.378-12.611 6.122-6.951 14.374-11.283 22.612-15.222 5.49-2.625 11.132-5.099 17.043-6.791 1.286-.368 2.425-1.105 3.296-2.584zm340.603 323.08c-3.176 8.305-6.039 16.308-8.938 24.698-.403.993-.771 1.598-1.339 2.381-2.23 1.574-3.505 3.429-3.801 6.276-.102.336.035.639-.054.779-3.703 5.677-5.777 11.975-8.934 18.146.286 1.615-.779 2.156-1.685 3.018-1.896 1.223-2.14 3.216-3.33 5.005-.112.328-.08.697-.185.849-4.131 5.23-7.255 10.95-11.277 16.02-10.801 13.612-21.349 27.473-35.556 37.901-2.148 1.577-4.411 3.186-5.981 5.28-3.805 5.073-9.202 7.821-14.783 9.822-6.261 2.244-10.95 6.124-15.034 11.052-1.979 2.388-4.27 4.167-7.437 4.658-1.686.261-3.234 1.036-4.382 2.265-5.798 6.208-13.708 8.691-21.125 11.995-5.213 2.322-8.914.291-9.71-5.343-.422-2.987-.94-5.328-4.15-6.658-2.899-1.201-3.377-3.819-1.233-6.108 5.622-6.002 12.473-10.381 19.781-14.042 1.16-.581 2.853-.448 3.644-1.49 4.107-5.408 10.712-7.794 15.162-12.736 1.398-1.552 3.176-2.345 4.97-3.239 5.279-2.632 10.036-5.919 13.16-11.119.604-1.005 1.284-1.967 2.183-2.719 10.13-8.472 18.633-18.541 27.131-28.522 8.518-10.004 14.893-21.573 21.225-33.062 1.998-3.625 3.98-7.283 5.818-11.001 1.454-2.942 3.447-5.772 2.665-9.733 1.413-7.927 5.215-14.681 7.552-22.303.664-1.264 1.614-1.926 2.006-3.303.138-.49.198-.684.347-1.162.26-.862.317-1.444.104-2.351-.148-3.788.981-7.059 1.704-10.726.41-1.269 1.07-2.102 1.126-3.452a9.19 9.19 0 0 1 .273-2.338c.356-.985.715-1.663.735-2.735a8.67 8.67 0 0 1 .283-2.345c.387-1.019.681-1.751.601-2.875-.129-1.388-.112-2.461.221-3.841.515-1.341.897-2.371.614-3.876.537-6.724.237-13.162 1.742-19.834.598-1.62.867-2.87.271-4.574-.744-8.282-.148-16.22-1.143-24.491.083-1.429.44-2.439.052-3.844-1.937-9.342-2.827-18.475-4.814-27.429-6.438-29.003-18.269-55.605-35.201-79.989-1.646-2.37-4.081-4.6-2.878-8.366 3.261-1.602 4.496.844 5.808 2.593 11.86 15.817 21.067 33.093 27.781 51.667 2.195 6.072 6.158 11.347 7.209 17.978.804 5.072 1.473 10.192 2.653 15.228 1.069 4.566 2.295 8.893 4.852 12.965 2.528 4.026 2.562 8.91 2.531 13.574-.039 6.01.137 11.995 1.35 17.886.954 4.634 2.104 9.095 8.028 10.043 2.746.439 4.747 2.565 5.358 5.389 1.358 6.27 5.08 9.019 11.453 8.261.824-.098 1.626.288 2.628 1.051 2.681 5.732.64 11.214.074 16.545-1.32 12.42-3.916 24.657-7.147 36.738-.512 1.916-.957 3.912-2.976 5.545z" class="B"/><path d="M493.288 393.938c.708-6.696 4.179-12.443 8.298-18.125-1.352 6.438-4.984 12.053-8.298 18.125zm9.025-18.924c-.421-2.472-.89-5.269 2.994-6.255-.637 2.014-1.648 4.06-2.994 6.255zm-14.027 26.951c-.413-2-.347-4.063 2.453-5.065.377-.031.305.426.374.648-.683 1.642-1.118 3.264-2.827 4.418z" class="C"/><path d="M263.638 1.59c-.567.872-1.451.796-2.575.357.563-.882 1.452-.793 2.575-.357z" class="E"/><path d="M473.272 355.724c2.98 2.348.999 4.839.04 6.788-3.653 7.427-7.565 14.738-11.646 21.942-9.035 15.95-19.73 30.587-33.045 43.371-3.889 3.734-7.698 7.636-11.486 11.5-3.281 3.348-5.391 7.851-9.673 10.362-.561.329-.93 1.19-1.484 1.294-7.334 1.389-10.359 9.474-17.49 11.231-.902.222-1.458 1.702-2.256 2.519-2.848 2.912-5.116 6.381-10.124 6.392-1.876.004-3.832 2.366-5.6 3.835-3.661 3.04-8.138 4.845-11.469 8.516-2.624 2.893-3.145 4.4 1.014 5.269 3.128.653 3.825 2.421 3.856 5.328.075 7.138 2.501 8.585 8.813 5.785 7.542-3.346 15.382-6.152 21.115-12.541.433-.482 1.073-1.153 1.589-1.129 7.563.348 9.61-6.676 14.056-10.46 1.128-.96 1.932-2.323 3.445-2.787 8.939-2.742 16.736-7.163 23.357-13.995 5.95-6.139 13.32-10.683 19.213-17.091 10.852-11.801 20.894-24.15 29.678-37.545.414-.632 1.278-.968 2.273-1.489-.734 4.661-3.98 8.115-6.605 11.921l-6.669 9.37c-.147 1.017-.313 1.667-1.057 2.423-5.441 3.801-8.362 9.468-12.798 13.762-3.903 3.778-7.477 7.894-11.306 12.178-.394 2.306-2.03 3.481-3.174 5.366-.488.669-.795 1.03-1.37 1.626-9.549 8.042-18.897 15.771-29.012 23.096-6.767 3.002-11.59 8.433-18.33 11.467-.738.348-1.156.555-1.868.965-12.178 7.469-24.737 13.368-37.969 18.736-2.928.993-5.578 1.608-8.577 2.368-1.127.173-1.826.451-2.851.971-15.489 5.604-31.039 9.262-47.406 11.02-1.323-.08-2.26-.38-3.549-.02-2.34.767-4.376 1.227-6.848.917-1.614-.381-2.874-.567-4.317.554a7.35 7.35 0 0 1-1.384.496c-.897.138-1.424.193-2.365.327-11.375-.083-22.372 1.152-33.698-.893-1.933-.532-3.39-1.454-5.451-.613-4.072.332-7.669-.527-11.681-.867-1.507-.457-2.572-1.115-4.218-.96-11.71-1.283-22.716-4.05-33.965-7.512-12.201-3.672-23.626-8.291-35.271-13.401-16.265-8.224-31.719-17.007-46.025-27.776-39.395-29.654-68.856-66.954-87.131-112.853-10.243-25.726-16.043-52.51-18.17-80.517-.181-9.618-2.081-18.766-.897-28.458.891-14.468 2.07-28.457 4.795-42.692 4.286-18.008 8.682-35.545 16.082-52.563 4.309-12.304 11.763-22.581 17.348-34.22 8.826-14.2 18.305-27.55 29.242-39.658 15.78-17.469 33.518-32.811 53.747-45.077.858-.52 1.615-1.175 2.682-2.025 7.003-4.763 14.308-8.285 21.295-12.354 3.508-2.043 6.931-4.64 11.756-4.311 1.334-.33 2.301-.663 3.576-1.007 1.31-.308 2.138-.994 3.452-1.338 2.348-1.794 4.993-2.177 7.747-3.216.916 2.849-1.11 3.735-3.21 4.506-7.59 2.787-15.353 5.274-22.132 9.778-6.656 4.422-13.792 7.833-18.789 14.981-4.847 6.933-13.418 10.61-19.328 16.96-2.461 2.644-4.155 5.541-5.199 8.938-.441 1.435-.134 3.589 1.032 3.004 3.034-1.523 6.663.517 9.309-1.991 1.164-1.103 2.445-1.949 3.961-.77 5.625 4.375 10.285 2.041 15.84-.942 4.309-2.314 7.585-6.205 11.55-7.906 7.195-3.086 13.153-8.388 20.819-10.518 8.578-2.383 16.126-7.646 24.94-9.477 3.184-.661 6.37-2.42 9.78-.14-.896 2.79-3.292 2.869-5.282 3.511-16.851 5.429-33.385 11.651-48.408 21.173-29.969 18.995-54.898 43.13-73.775 73.322-18.683 29.882-30.285 62.334-33.616 97.385-6.274 66.008 10.519 125.204 54.526 175.597 30.298 34.695 68.048 57.786 112.599 69.652 1.946.518 3.766 1.327 5.974 2.147 1.234.376 2.129.606 3.42.45 2.492-.083 4.548.441 6.951 1.029 1.439.585 2.567.914 4.182.732 10.787.727 21.121 2.243 31.548 2.515 14.12.368 28.047-1.813 42.407-3.408 1.553-.072 2.739.197 4.184-.38.934-.324 1.58-.419 2.553-.492 1.182-.043 2.005-.222 3.083-.777 29.262-6.476 55.986-17.976 80.25-34.99 29.114-20.415 51.738-46.617 68.673-77.821 3.315-6.108 5.572-12.783 10.223-18.399z" class="C"/><path d="M167.456 21.272c-.371.899-1.267 1.444-2.804 1.364.394-.935 1.41-1.194 2.804-1.364z" class="D"/><path d="M180.333 16.159c.294.718.644 1.645-.361 1.965-.233.074-.655-.445-1.055-.996.318-.519.701-.733 1.416-.97z" class="C"/><path d="M473.751 355.345c-11.494 25.649-26.117 48.818-45.332 68.949-31.416 32.913-69.491 53.994-114.182 64.163-.803.273-1.237.338-1.988.506-1.109.148-1.9.211-3.033.481-.782.263-1.22.326-1.982.461-12.15 1.698-23.975 3.303-35.932 3.652-13.975.408-27.842-.74-42.079-2.665-.857-.024-1.294-.089-2.063-.174l-7.985-1.689c-.829-.084-1.256-.183-2.018-.283-13.955-3.585-27.422-7.641-40.32-13.359C85.747 435 32.501 346.088 40.673 246.73c5.826-70.835 38.036-127.225 95.144-169.562 20.415-15.134 43.335-24.666 67.72-32.127l11.121-2.683c.421-.444.525-.682.922-.664.755.248 1.216.239 1.975.044.444-.303.59-.42 1.011-.478.958.031 1.642.004 2.664-.103.915-.133 1.467-.323 2.328-.431l3.956-.67a17.83 17.83 0 0 1 1.996-.317l14.932-1.719c.845-.138 1.289-.192 2.071-.226 12.029-.641 23.722-.851 35.876-.047 1.266.031 2.076.018 3.172.219l13.874 1.686c1.289.119 2.179.107 3.355.45 30.475 5.561 58.815 15.731 84.564 32.62.401.263.92.344 1.706.666.521.042.719-.073 1.262-.143 7.972 3.568 14.014 9.311 20.438 14.502 13.336 10.777 24.884 23.282 35.417 37.196.168.548.205.775-.032 1.211 8.134 12.368 16.024 24.806 22.51 38.149 11.821 24.321 18.762 49.975 22.104 77.113.137.806.139 1.235.218 1.981l.879 26.939-.003 3.135-1.916 21.912c-.004.868-.062 1.303-.138 2.067-.307 1.727-.584 3.126-.8 4.954-.035.857-.115 1.289-.223 2.05-.27 1.085-.498 1.844-.682 3.002-.079.816-.172 1.239-.255 1.995-.269 1.085-.515 1.845-.721 3.008-.093.818-.196 1.24-.302 1.995l-3.199 12.897c.189.64.371.871.138 1.254-.416.151-.422.245-.395.283.338 1.29-.679 2.175-1.051 3.588l-8.56 22.869z" class="F"/><path d="M338.703 13.843c.663-.279 1.09-.285 1.827-.206.528.372.785.62 1.327.937.635.047 1.024-.014 1.695.015.491.386.734.65 1.268.969.257.086.146.098.157.043 1.537 1.293 3.43 1.61 5.671 1.887 2.012-.138 3.583.215 5.181.827C415.368 41.1 460.915 80.192 492.532 135.531c.24.42.31.936.504 1.77.257 5.271 3.817 8.739 5.8 13.14.312.12.187.155.195.091.021.319.162.643.666 1.074.215.176.401.458.337.614.005.543.171.885.643 1.373.221.187.403.485.35.651l11.364 31.431c3.667 10.753 7.153 21.748 7.959 32.994 1.114 15.54 3.325 31.026 3.172 46.655-.039 4.029.553 7.96 2.277 12.089.139 1.781.136 3.175-.008 4.966-1.141.411-2.166.572-3.134.405-1.734-.298-3.005 3.048-4.802.751-2.26-2.889-7.568-3.223-6.983-8.525.351-3.188-1.697-5.605-4.433-5.716-8.647-.352-8.118-7.206-9.556-12.636-2.234-8.44-.513-17.184-1.751-25.781-.541-3.755-3.52-5.14-4.545-8.307-2.827-8.732-3.134-17.911-5.568-26.689-.856-3.087-1.494-6.185-3.537-8.629-2.9-3.468-3.151-7.924-4.771-11.854-6.864-16.65-15.295-32.362-26.253-46.687-.997-1.303-1.631-3.032-4.19-2.452-.396.106-.382.077-.397.079.345-2.02-.815-3.557-1.949-4.882C434.097 109.98 424.16 98.662 412.388 89c-5.757-4.725-11.09-9.908-17.709-13.477-1.464-.789-2.869-1.68-4.912-1.946-.355-.023-.349-.064-.366-.048.615-4.958-4.294-5.263-6.611-7.73-7.415-7.897-18.333-9.581-27.117-15.075-.556-.348-1.335-.879-1.816-.723-6.067 1.963-9.454-2.993-13.628-5.471-5.559-3.3-12.011-3.919-17.658-6.725-6.805-3.381-13.862-5.337-21.535-5.134-2.482.066-4.938-1.004-7.032-2.363-10.511-6.819-22.195-6.004-33.784-5.021-3.62.307-5.242-.821-5.265-3.989-.025-3.367-1.08-6.234-2.986-8.808-1.793-2.422-.656-3.626 1.521-4.521 1.843-.757 3.766-2.022 5.611-1.952 7.723.294 15.446-2.218 23.197.311 3.06.998 6.34.971 9.74.665 5.653-.509 11.278.873 16.923 1.77 9.879 1.571 19.332 5.646 29.744 5.079z" class="D"/><path d="M285.673 37.825c-.657.913-1.535.431-2.613.11.637-.805 1.526-.668 2.613-.11zm17.285 2.142c-.763.726-1.654.4-2.827-.079.723-1.071 1.697-.572 2.827.079zm-79.267.572c-.413.372-.981.588-1.836.672.184-.887.915-.907 1.836-.672zm5.977-.985c-.37.349-.919.541-1.644.584.188-.856.811-.84 1.644-.584zm17.005-1.917c-.373.305-.924.457-1.65.465.22-.836.844-.736 1.65-.465z" class="E"/><path d="M218.801 41.121c-.11.297-.261.396-.679.463-.146-.4-.024-.768.099-1.136.18.159.36.317.581.673zm-3.033.668c-.029.264-.163.365-.546.415-.136-.38-.176-.907.546-.415z" class="C"/><path d="M482.493 332.644c-.094-.977.17-2.089.666-3.459.579 1.015 1.045 2.307-.666 3.459zm9.597-59.061c-.276-.649-.319-1.484-.254-2.551 1.002.522 1.156 1.383.254 2.551zm-.877-30.025c-.283-.36-.38-.879-.384-1.581.725.212 1.048.698.384 1.581zm-4.238 71.129c-.17-.409-.151-.912.028-1.619.831.371.892.948-.028 1.619zm1.03-5.007c-.181-.404-.175-.906-.018-1.616.832.347.917.92.018 1.616zm1.963-12c-.208-.405-.219-.911-.096-1.639.885.302 1.061.878.096 1.639zm-1.034 7.008c-.187-.411-.175-.916-.017-1.637.881.342.995.924.017 1.637zm-5.38 24.023c-.234-.14-.255-.325-.102-.731.331-.007.496.201.629.428.01.018-.205.168-.527.303z" class="D"/><path d="M208.18 251.82c-8.148-11.773-17.383-22.297-26.345-33.435-.428-1.077-1.042-1.611-1.83-2.386-2.92-3.57-5.698-6.876-8.283-10.327-4.771-6.368-8.591-13.346-13.484-19.704-8.325-10.817-7.335-28.622.825-39.922 2.221-3.076 4.081-3.092 6.867-.679 12.787 11.072 15.89 29.582 6.9 43.949-1.546 2.47-1.336 3.955.181 6.082 10.68 14.979 23.427 28.135 36.101 41.372 3.908 4.082 7.799 8.277 11.036 12.885 7.161 10.194 15.883 18.795 25.417 26.687 2.431 2.012 4.627 4.307 7.095 6.797.584.414 1.002.398 1.681.105.199-3.305.132-6.435.209-10.007.418-3.567.329-6.695.162-10.155l-19.575-23.036c-1.165-1.373-2.649-1.169-4.076-1.429-10.958-1.996-20.164-7.814-23.353-18.125-2.746-8.879-8.854-13.779-14.596-19.622-3.621-3.684-3.79-7.108-.37-10.858 2.981-3.269 3.129-9.943.291-13.121-12.174-13.633-9.368-37.578 5.513-47.933 2.3-1.601 3.492-.825 4.913 1.023 8.371 10.885 9.819 29.987 1.958 41.563-3.812 5.614-2.867 10.185-.27 15.151 3.48 6.655 9.115 11.396 15.118 15.691 2.591 1.854 2.973.517 2.826-1.955l-1.858-33.936c-.126-2.329-.364-4.657-.364-6.985 0-6.607-.439-12.896-2.815-19.405-4.906-13.438 1.027-29.694 12.465-38.37 2.864-2.173 4.485-1.805 6.227 1.297 8.36 14.884 6.917 31.943-4.204 44.58-1.818 2.065-1.817 4.114-1.854 6.838.197 1.484.148 2.582.18 4.004l.798 9.001c.221 1.482.166 2.584.22 4.007.274 2.433.534 4.538.721 7.033.286 1.447.226 2.545.264 3.962l.836 6.995a34.6 34.6 0 0 1 .154 3.033c.303 2.392.601 4.49.829 6.978.029.811.097 1.237.154 1.99 1.391 13.79 10.232 22.884 18.841 32.526.475.457.798.454 1.261.085l.596-35.912c3.49-.09 5.474 2.819 4.805 6.818-.355 2.123-1.109 4.179-.955 6.38.13 1.861.29 3.795 2.233 4.682 1.851.845 3.178-.569 4.408-1.596 2.688-2.243 5.009-4.85 7.194-8.016.649-.693 1.126-1.087 1.459-1.611-.368.519-.835.944-1.589 1.599-5.584.662-8.166-1.091-9.354-5.928-.567-2.306-.369-4.611-.07-6.931 1.344-10.426 1.104-20.856-.126-31.268-.411-3.482-.345-6.965-.391-10.45-.039-2.995-.21-5.66-4.357-3.438-.586.314-1.304.095-2.25-.373-.209-5.312-.113-10.364.111-15.82.211-2.196.23-3.989.085-6.116-1.783-2.514-2.713-5.084-3.576-8.053-.144-.782-.267-1.205-.436-1.958-.248-.773-.429-1.223-.582-2.042-.108-.776-.206-1.192-.28-1.936-.884-3.327-.538-6.385-.244-9.866.192-.87.241-1.308.367-2.069.682-6.209 3.05-11.34 7.133-15.822 3.414 3.206 2.322 6.893 1.444 10.364-1.199 4.746-1.568 9.47-.604 14.248.388 1.92.91 4.135 3.28 4.494 2.359.357 4.115-1.057 5.375-2.931 2.536-3.772 3.082-8.033 2.383-12.383-.579-3.604-2.366-6.859-3.687-10.244-1.398-3.58-4.977-1.709-7.523-3.248.201-3.402 2.475-5.299 5.011-5.879 2.642-.604 3.635 2.398 4.836 4.228 3.581 5.455 5.622 11.495 6.15 18.421.105 1.845.07 3.28-.023 5.022.268 5.131-1.266 9.584-3.673 13.537-2.205 3.62-2.616 7.221-2.506 11.302l1.364 63.705c.031 1.44-.402 2.968.711 4.72 3.486-2.34 5.57-5.926 8.725-8.858 2.979-.218 2.632 2.015 2.94 3.54.677 3.349 1.318 6.634 4.805 8.573-4.729 5.743-9.295 11.233-14.088 16.517-1.442 1.589-2.2 3.046-2.189 5.223l.044 49.199c3.406-.481 3.29-2.515 3.857-3.814 7.52-17.213 13.144-35.153 20.107-52.582 2.774-6.944 5.65-13.842 9.649-20.548 2.858 1.834 3.334 2.781 1.549 5.653-2.437 3.92-3.247 8.33-4.745 12.545-2.77 7.793-5.989 15.395-7.944 23.504-.933 3.868.663 8.157-2.222 11.602 1.152-1.466 2.024-2.999 2.506-4.803.415-1.552 1.451-2.65 3.582-1.779-.029 1.192-.29 2.107-.561 3.381.188 2.383-.239 4.403-.344 6.653 2.531.003 3.878-1.976 6.067-2.749 7.767-6.939 13.089-15.483 19.434-23.163 7.234-8.755 14.984-16.964 23.959-24.436.567-1.435 1.681-1.683 2.851-2.372 1.144-.677 2.028-1.168 3.06-1.928 1.694-2.806 3.821-4.678 6.789-6.089 2.318-1.734 4.399-3.235 6.833-4.819 2.362 1.967.698 3.595-.392 5.126-1.727 2.427-3.495 4.826-5.11 7.329-.702 1.088-2.06 2.249-1.399 3.511.781 1.491 2.651 1.141 4.081 1.027 8.133-.65 16.174-1.598 22.81-7.143 1.785-1.492 3.814-2.774 6.414-1.076-8.477 9.648-19.318 13.379-31.5 11.633-5.232-.75-8.562.516-12.045 4.16-1.226-.601-1.152-1.615-1.053-3.82-7.793 8.086-17.699 13.01-20.449 24.318-.581 2.391-2.684 3.713-4.624 5.038-1.707 1.166-2.859 2.468-.575 4.592.803 1.03.825 1.857.236 2.964-.073.675-.994.28-.481.656.754-.843 1.442-1.218 2.579-1.35 13.312-6.321 25.773-13.422 36.411-23.413 3.608-3.388 7.453-6.58 12.308-8.815a10.85 10.85 0 0 1 1.938.027c5.729 2.991 6.315 4.375 3.799 9.088-7.417-3.511-12.699-2.023-16.41 4.94-2.139 4.014-5.374 6.608-9.33 8.642-4.225 2.173-8.66 4.23-10.728 9.044 1.785 1.157 4.924-2.806 5.283 2.036-10.791 7.048-22.26 12.24-33.295 18.229-9.14 4.96-17.526 10.678-23.91 19.454-.312.588-.396.897-.29 1.551.404.258.703.214 1.246.138 9.072-3.299 18.119-5.828 27.61-8.171.285 3.744-2.06 6.416-6.237 6.858-7.262.768-13.712 3.697-20.072 6.963-1.184.608-2.326 1.307-3.612 1.678-4.533 1.307-7.959-1.347-8.012-6.055-.022-1.935 1.392-3.78.159-6.215-3.95 2.388-6.876 5.275-7.148 10.047-.284 4.981-.308 9.982 0 14.959.261 4.219 1.325 4.667 4.904 2.527 2.223-1.33 4.208-3.507 7.307-1.704-1.986 3.503-4.053 6.639-6.217 10.108-.153.745.016 1.037.611 1.392 6.07-2.898 11.365-6.385 16.203-11.209 10.315-10.288 23.328-11.854 37.134-8.349 3.536.898 4.642 2.505 2.648 6.073-7.969 14.257-24.659 23.832-42.362 19.743-3.034-.701-4.967-.102-7.29 1.248-7.105 4.127-11.627 9.312-10.565 18.463.82 7.067.466 14.314.149 21.459-.351 7.908 2.495 14.179 8.081 19.598 13.271 12.873 26.81 25.445 41.058 37.235 9.849 8.15 14.422 16.153 16.458 29.342-1.449.26-2.388-.776-3.41-1.363l-69.623-40.151c-2.545-1.484-4.267-1.409-6.719-.016l-72.444 40.759c-.812-.041-1.15-.332-1.431-1.095 2.201-10.638 6.441-19.542 14.659-26.811 13.589-12.019 26.462-24.845 39.71-37.253 3.527-3.303 5.104-7.236 5.125-11.991l.244-38.971c-.112-11.937-6.654-17.477-20.218-13.796-15.266 4.143-33.082-1.911-41.504-15.519-2.273-3.672-1.669-5.644 2.444-6.993 12.533-4.111 24.601-3.248 35.057 4.925 4.762 3.722 9.564 5.533 15.225 5.762 2.201.089 5.11 2.571 6.35.243 1.081-2.032-1.489-4.471-2.76-6.588-1.371-2.284-3.454-3.438-6.015-4.027-21.597-4.961-42.386-12.574-63.449-19.297-4.89-1.561-10.091-2.125-15.036-3.544-15.159-4.349-24.577-14.718-29.677-29.263-2.28-6.503-1.341-7.778 5.737-7.181 17.484 1.474 30.596 9.581 37.474 26.214 1.171 2.833 2.648 4.097 5.571 4.727 14.319 3.086 28.417 7.019 42.591 11.899-.187 2.896-.187 2.896-3.961 3.313 7.411 1.993 7.411 1.993 9.819-1.273 1.245.257 2.155.426 3.493.786.565.065.702-.06.977-.427-5.475-4.427-11.329-8.242-17.525-11.505-20.644-10.873-37.749-26.658-56.266-40.482-2.662-1.987-5.232-4.101-7.94-6.021-9.801-6.95-13.63-16.853-14.079-28.399-.097-2.484.125-4.994.372-7.474.802-8.049 1.95-8.651 9.028-4.312 10.255 6.286 17.323 14.934 19.31 27.523l.151 3.09c-.676 5.938 2.738 8.44 7.076 11.245 12.292 7.946 24.164 16.544 36.522 25.01.956-.341.927-.961.656-1.946z" class="C"/><path d="M288.349 203.113c-2.126-2.845-3.719 1.523-5.359.369-2.222-1.563 1.797-3.052.187-4.736-1.534-1.605-1.293-3.66-1.378-5.643-.027-.633-.342-1.253-.816-2.145 8.491-10.693 13.371-22.588 13.434-36.351.012-2.634-.541-4.642-2.63-6.586-11.204-10.428-13.726-29.933-4.15-45.626 1.727-2.83 3.498-2.85 6.045-.811 13.015 10.421 17.275 28.066 10.214 43.192-.584 1.25-1.067 2.433-.832 3.806 1.385 8.105 1.053 16.203-.539 25.55l11.888-11.31c1.518-1.472.32-3.172.101-4.728-2.181-15.453 5.074-30.156 18.541-37.447 4.619-2.5 5.837-2.086 6.866 2.925 3.448 16.798.735 31.175-14.594 41.812-6.321 4.386-11.136 10.943-16.937 16.674-6.858 4.229-11.53 10.18-16.311 16.442-1.203 1.704-2.32 3.074-3.728 4.613zm72.267 52.556c.082-.737.219-1.024.727-1.331 2.238-.182 3.207-1.562 4.04-3.466.222-.59.418-.857.866-1.171 7.49-3.928 14.692-7.9 23.272-9.467.77-.267 1.216-.344 1.997-.348 4.6 4.204 5.203 7.701 2.469 12.811-1.391 2.599-3.165 4.99-4.257 8.145-.017.382-.091.668-.219.742-2.846 1.692-5.008 3.934-6.841 6.524.246.255.084.57-.086.623-6.061 1.697-11.468 4.618-17.272 6.515-3.265 1.067-6.447 2.372-10.153 3.22-.474.288-.64.349-1.064.345-3.075-.078-5.878.467-8.699.185-1.178-.118-2.408-.428-2.809-1.694-.5-1.579.664-3.067 1.789-3.08 9.852-.115 10.353-8.964 14.077-14.78.713-1.114 1.582-2.138 2.162-3.772zm-73.803 51.598c-3.515-.754-5.365 2.015-7.73 3.686-3.702 2.616-5.66 2.089-5.968-2.326-.452-6.463-.416-12.995-.061-19.468.248-4.516 4.508-6.715 7.135-9.81.746-.879 2.196-.736 3.277-.067 1.385.856 1.409 2.088.864 3.49-.538 1.383-1.232 2.777-1.4 4.22-.499 4.297 2.877 7.038 6.495 4.82 5.159-3.163 10.868-4.844 16.286-7.278 2.09-.939 4.047-1.697 6.631-1.226 3.491.636 5.422-2.362 7.453-5.084.192-.442.332-.545.731-.621 4.56.207 8.915.817 12.733-2.061.624-.47 1.59-.568 2.4-.596 2.212-.077 4.691.053 5.54 2.409.961 2.665-.953 4.35-3.138 5.514-3.966 2.113-8.222 3.587-12.487 4.865-9.695 2.905-19.081 6.606-28.43 10.422-4.28 1.747-7.424 4.977-10.362 8.748.046.375.02.345.03.364zm70.696-119.576c-.223.656-.441.907-.915 1.188-2.948.616-5.231 1.957-7.067 4.125.175.322.035.525-.082.563-4.223-.396-5.095-1.77-4.918-6.062.257-6.217 1.587-12.292 2.12-18.471.345-4.002 3.606-7.006 4.356-11.334.02-.385.095-.634.205-.703 3.053-.994 4.44-3.532 6.089-6.154.054-.69.23-.949.781-1.162 1.743-.294 2.957-1.273 4.402-1.685 3.418-.974 5.859.133 7.31 3.37.758 1.69 1.075 3.458 1.071 5.331-.022 10.843-2.478 20.669-11.377 27.882-.894.725-1.941 1.35-1.976 3.115zm-84.068 18.082c.075 3.611-7.358 12.47-10.611 12.727-2.737.216-4.329-1.864-4.765-4.178-.451-2.391-.887-5.364.128-7.329 1.999-3.87.086-6.336-2.152-9.163-1.588-3.585.432-7.016-.065-10.84 1.146-2.706-.055-5.205.377-8.094-.488-9.411 1.048-18.334.027-27.697a10.61 10.61 0 0 1-.25-3.071c3.484-.062 4.779-2.886 7.126-5.702.643 2.792 1.478 4.798 1.508 6.817.147 9.932 1.526 19.81 1.704 29.679.091 5.079-.08 10.519-1.314 15.743-1.633 6.915 1.275 10.685 8.288 11.109z" class="B"/><path d="M350.784 157.526c.448.572 1.095 1.648.797 2.098-3.708 5.592-2.879 12.399-4.943 18.483-1.428 4.211-.288 9.311-.121 14.008.014.382 1.375.716 2.461 1.281-1.879 1.996-4.109 3.784-6.654 5.715-.747-.071-1.151-.342-1.612-.497-.646-.218-1.18.194-1.764.323.608.167 1.287.03 2.034.693-7.872 7.221-15.994 14.116-23.988 21.156-6.919 6.093-12.992 12.924-17.604 21.386-1.637-.527-2.075-1.971-1.644-3.146 2.402-6.552 1.641-14.072 6.433-20.257.557-.432.798-.581 1.868-.871 4.11-1.571 6.056-4.562 8.535-6.894 8.372-7.878 17.22-15.151 26.877-21.377 2.607-1.681 3.234-3.257 2.79-6.418-1.295-9.215.888-17.797 6.536-25.682z" class="C"/><path d="M392.8 197.268c-2.147-.608-3.825.244-5.396 1.652-7.988 7.154-17.864 7.754-27.815 7.694-2.596-.016-4.525-1.032-1.921-4.34 3.328-4.229 6.057-8.93 9.028-13.82 1.477-1.192 2.969-1.992 4.79-2.777 6.106-1.328 11.905-2.356 17.896-1.947 1.836.125 3.547.557 5.314.947 3.591.792 3.491 2.976 2.349 5.594-.999 2.289-2.981 3.953-4.169 6.59-.057.418-.084.388-.075.407zm-86.87 21.778c-2.753 1.265-3.146 4.327-3.274 5.948-.453 5.739-3.485 10.815-3.602 16.971-.031.867-.124 1.293-.399 1.849-4.156 1.231-3.53 5.12-4.729 7.85-.558 1.271-.013 3.394-2.381 2.686-1.753-.524-2.046-2.268-1.407-3.731 2.945-6.742 3.302-14.082 4.794-21.133 1.147-5.418 5.113-9.404 6.076-14.836.857-4.831 1.861-9.75 5.47-13.625.832-.893.572-2.542-.427-4.036.724-1.946 1.557-3.773 2.763-5.307 1.34-1.704 2.564-4.436 5.492-2.581 2.534 1.606 2.547 3.881 1.308 6.515-2.819 5.993-5.458 12.071-8.148 18.125-.533 1.199-.967 2.442-1.019 3.841.428.176.421.128.446.136-.319.3-.616.633-.963 1.329z" class="B"/><path d="M287.095 307.127c-1.842-3.893 1.912-5.27 3.929-6.618 4.587-3.067 9.349-6.149 15.117-6.831 2.625-.31 4.687-2.209 7.001-3.246 8.073-3.619 17.123-4.363 24.82-8.868 1.557-.911 3.166-2.737 2.182-3.843-1.39-1.562-4.564-2.96-6.149-1.16-3.989 4.529-8.25 2.888-12.952 1.357 8.821-3.346 18.06-5.842 27.5-7.437 2.823-.477 4.329-1.567 5.247-4.262 1.34-3.932 3.538-7.456 6.608-10.762.69 2.137-.258 4.012-1.534 5.83-.757 1.079-1.427 2.242-1.975 3.44-3.163 6.918-3.578 7.307-10.915 10.159-1.001.389-2.324.515-2.531 2.327 3.212 1.162 6.827-.945 10.142 1.276-14.634 5.954-29.555 11.571-44.82 16.175-8.145 2.456-15.26 6.486-21.671 12.462z" class="C"/><path d="M348.254 246.904c-1.342-3.784-2.916-.586-4.223-.219-1.203.337-2.444 1.718-3.594.375-1.163-1.358.418-2.281.969-3.411 2.257-4.632 6.435-6.986 10.773-8.962 4.929-2.244 8.412-5.555 10.524-10.615 1.968-4.714 11.186-7.274 15.49-4.552.436.276.482 1.168.76 2.205a3.75 3.75 0 0 1-1.036 1.889c-1.249 1.123-2.869 1.377-3.557 3.101-1.286 1.533-2.554 2.758-4.136 4.086-2.723.555-4.311 2.153-5.537 4.263.198.282.037.596-.132.645-2.492.02-3.585 2.002-4.963 3.39.24.264.071.526-.081.562-3.655.117-5.555 2.928-8.135 5.021-.972.943-1.882 1.553-3.121 2.223zm-25.162-2.924c-2.011-.21-3.668-.397-4.091-2.531-.39-1.966.64-3.142 2.325-3.896 3.624-1.621 5.732-4.044 5.799-8.379.026-1.702 1.576-3.718 2.974-5.001 5.597-5.135 10.097-11.468 16.735-15.464 1.027-.618 1.774-2.601 3.248-1.357 1.583 1.335-.421 2.212-.901 3.289-.196.44-.202.965-.303 1.822-1.45 1.949-2.891 3.527-4.633 5.224-1.984 1.629-3.622 3.184-5.142 5.281l-15.227 20.356c-.275.488-.397.679-.782.656zm66.546-170.201c1.21-1.193 2.639-.899 3.989-.095 5.886 3.504 11.836 6.536 16.847 11.745 6.45 6.705 13.963 12.462 20.656 19.047 5.095 5.013 8.571 11.366 13.895 16.179 1.305 1.179 2.168 2.984 1.073 5.334-12.469-14.728-25.437-29.086-40.958-40.905-5.004-3.81-10.18-7.394-15.502-11.306z" class="B"/><path d="M357.806 187.994c-3.047-1.779-1.619-3.056.291-4.36 8.077-5.514 11.073-13.691 11.711-22.958.674-9.797-1.284-11.721-11.05-11.014 2.392-2.836 5.782-6.605 9.498-5.284 3.434 1.22 2.724 6.351 2.983 9.869.978 13.249-2.095 25.031-13.432 33.748zm35.271 9.125c-1.835-3.079 1.256-4.555 2.445-6.68 1.601-2.864 1.575-4.42-2.185-5.04-5.135-.847-10.168-.91-15.291.07-1.873.358-3.676 1.767-5.988.496 7.996-3.913 16.446-3.613 24.979-1.596 3.102.733 3.571 2.443 1.946 5.089-1.649 2.686-3.366 5.299-5.905 7.661zm-37.793 81.671c2.147-3.785 6.569-3.857 10.223-5.196 5.318-1.95 10.388-4.812 16.555-5.039-7.257 7.005-16.505 9.451-26.778 10.236zm34.664-17.77c-1.365-2.267-.213-4.361 1.238-6.084 3.913-4.647 3.91-9.331.682-14.613 7.036-.629 7.686.121 5.632 6.648-1.588 5.047-4.098 9.642-7.552 14.049zm-97.66-62.317c-1.089-.408-1.403-1.131-.779-1.928 4.258-5.431 8.971-10.443 14.054-15.108.683-.627 1.438-.711 2.343.271-4.987 5.732-10.153 11.182-15.618 16.764z" class="C"/><path d="M226.439 284.657c.987 5.137.998 5.063-4.767 4.165-3.566-.555-6.804-1.456-9.637-5.848 3.688.862 6.204 3.401 8.718.241 1.857.191 3.62.735 5.686 1.442z" class="B"/><path d="M257.625 177.396c-.019 3.149.829 6.014-1.103 8.968-1.615-7.713-.607-15.744-.635-24.148 2.025-.324 1.4 1.168 1.425 2.128.107 4.22-.045 8.444.314 13.052z" class="D"/><path d="M389.495 239.993c.301.208.295.47.198.51l-22.78 9.18c5.963-6.001 13.938-8.242 22.582-9.69zm-131.646-62.68c-2.337-4.468-.051-9.809-1.592-15.158-.263-3.707-.274-7.094-.176-10.929 2.586.426 1.717 2.561 1.736 4.226l.033 21.861z" class="C"/><path d="M303.288 250.704c-1.672 2.792-4.233 4.964-7.485 6.936-.695-3.631.67-6.619 1.637-9.96 1.298 1.917 3.175 2.818 5.848 3.024z" class="G"/><path d="M351.636 244.94c-1.011-.404-1.919-1.171-.956-1.787 2.494-1.596 4.327-4.668 8.329-3.682-1.778 2.434-4.495 3.798-7.373 5.469zm5.381-94.32c1.724 4.658-1.898 5.476-5.364 6.493 1.013-2.645 2.991-4.553 5.364-6.493zm26.181 117.633c-1.522-4.866 2.627-5.404 5.862-6.778-1.237 2.715-3.398 4.702-5.862 6.778z" class="C"/><path d="M359.347 192.733c-1.157 2.528-3.39 4.333-6.162 5.985-.618-4.296 2.076-5.649 6.162-5.985z" class="G"/><path d="M254.551 263.195c2.323 2.641 1.339 5.925.423 9.393-.365-2.845-.448-5.897-.423-9.393z" class="D"/><path d="M341.373 199.879c-2.306-.702-3.786 1.223-7.111 1.604 2.499-2.663 4.404-4.246 6.8-5.006.682-.216.719 1.254.906 2.403.024.67-.122.874-.594.999z" class="B"/><path d="M365.158 235.236c-1.645-4.253 1.383-4.514 4.545-4.587-1.287 1.662-2.779 3.07-4.545 4.587zm-.036 15.411c1.466 2.839.399 4.153-3.371 3.895.908-1.46 1.996-2.629 3.371-3.895zm-15.128-57.446c-.535-4.174 2.487-4.252 5.919-4.322-1.592 1.419-3.61 2.808-5.919 4.322zm-10.698 29.921c-.352-2.777 1.477-4.254 4.286-5.282-1.089 1.681-2.538 3.397-4.286 5.282zm20.812 16.142c-1.419-3.582 1.316-3.552 3.938-3.729-.995 1.359-2.328 2.495-3.938 3.729z" class="C"/><path d="M256.668 126.136c1.935 1.288 1.271 3.241.381 5.425-.313-1.522-.365-3.281-.381-5.425z" class="D"/><path d="M275.87 106.451c-1.399-1.067-1.164-2.584-.383-4.382.326 1.201.42 2.648.383 4.382z" class="B"/><path d="M374.619 226.913c-1.597-2.046-1.446-2.232 2.691-3.164-.567 1-1.49 2.027-2.691 3.164z" class="C"/><path d="M232.991 182.515c-1.335-.654-1.286-1.854-.655-3.383.388.874.577 1.995.655 3.383zm-.988-10.998c-1.351-.664-1.304-1.872-.616-3.412.38.885.55 2.012.616 3.412zm-1.022-13.006c-1.341-.675-1.289-1.879-.588-3.411.372.887.534 2.014.588 3.411zm-66.907 59.065c-1.14-.415-1.387-1.267-.571-2.549.376.632.532 1.473.571 2.549z" class="D"/><path d="M322.716 244.043c.111-.276.553-.381.778-.402.497.344.768.709 1.334 1.257-.548.771-1.392 1.36-2.55 1.976-.485-.009-.655-.046-.904-.332.358-.908.794-1.565 1.341-2.499z" class="H"/><path d="M233.964 192.542c-1.043-.419-1.249-1.26-.526-2.49.346.613.485 1.434.526 2.49z" class="D"/><path d="M349.533 200.793c-.4.703-1.173 1.404-2.251 2.197-.381-1.437.381-2.168 2.251-2.197z" class="G"/><path d="M208.068 251.896c1.268.219 2.356 1.231 2.241 2.524-.078.875-1.278.503-2.234-.21-.17-.851-.109-1.383-.007-2.314z" class="H"/><path d="M251.902 99.988c.767.362.89.922.097 1.679-.229-.422-.241-.975-.097-1.679zm-.15 11.971c.742.15 1.111.6.591 1.53-.342-.333-.518-.839-.591-1.53zm.846 4.047c.832.036 1.337.459.726 1.513-.369-.321-.581-.789-.726-1.513zm-17.65 85.582c-.738-.175-1.116-.638-.51-1.57.322.351.462.867.51 1.57z" class="D"/><path d="M375.651 212.78c-.303.781-.818 1.01-1.621.29.308-.83.9-.612 1.621-.29z" class="B"/><path d="M179.87 216.096c.894-.187 1.669.18 1.843 1.636-.574-.217-1.162-.779-1.843-1.636zm74.921 17.916c.859.353 1.091.941.284 1.337-.224.11-.736-.365-1.18-.808.156-.281.377-.326.896-.529zm-.617 49.215c.666.486.569 1.083-.147 1.221-.306.059-.704-.36-1.132-.774.234-.237.54-.263 1.279-.447z" class="D"/><path fill="#c3c3c3" d="M291.818 285.799c-.209.497-.683.815-1.454 1.167-.484-.019-.671-.072-.954-.4.203-.756.501-1.236 1.066-1.82.536.222.807.548 1.342 1.053z"/><path d="M526.121 277.431c-4.995-.584-3.736-5.034-4.008-7.731-.662-6.556-.946-13.213-1.067-19.796-.153-8.333-2.128-16.478-2.169-24.632-.028-5.597-2.002-10.861-1.404-16.484.315-2.967-1.596-6.01-2.199-8.944-2.373-11.543-8.079-21.96-10.652-33.379-.874-3.877-4.031-6.969-3.679-11.635 5.283 8.095 8.084 17.639 11.532 26.91 4.398 11.825 6.907 24.174 9.64 36.425 1.955 8.762 3.349 17.698 3.672 27.173.058 1.242.051 2.048.213 3.144.776 9.719.721 19.149.12 28.951zm-26.96-127.25c-4.168-2.742-6.457-6.857-6.362-12.303 2.857 3.559 5.245 7.425 6.362 12.303zM350.914 17.268c-2.338 1.791-4.218.91-5.903-1.358 2.167-.811 3.891.615 5.903 1.358z" class="B"/><path d="M526.228 248.56c-1.007-.49-.881-1.408-.578-2.558.861.514.913 1.404.578 2.558z" class="E"/><path d="M499.967 151.471c-.308.054-.562-.204-.871-.733.271-.04.599.191.871.733zM344.979 15.351c-.22.127-.538-.04-1.001-.439.204-.106.554.019 1.001.439zm-2.986-.955c-.208.118-.527-.051-1-.447.194-.098.542.031 1 .447zm158.952 139.06c-.306.045-.566-.235-.901-.797.266-.031.606.221.901.797zm23.369 126.839c-.022-.041.022.041 0 0z" class="B"/><path d="M3.334 284.242c.038-.019-.038.019 0 0z" class="E"/><path fill="#a4a4a3" d="M4.322 308.242c.042-.022-.042.022 0 0z"/><path d="M259.576 84.383c7.587-1.09 7.193-.911 10.95 7.38 3.153 6.958 3.175 13.308-.563 19.865-1.706 2.993-4.497 4.111-7.507 3.935-3.129-.182-3.391-3.354-3.975-5.66-1.112-4.389-1.269-8.955.039-13.274 1.138-3.755 1.554-7.444 1.078-11.757-.112-.47-.026-.444-.021-.489zm67.757 229.321c-3.465 1.704-6.779 1.331-9.961.638-2.271-.495-3.961-2.405-3.112-4.786.862-2.419 3.093-2.168 4.929-.859 2.27 1.619 4.44-.436 6.682.038 1.279.27 2.804.003 3.412 1.455.654 1.562-.824 2.303-1.95 3.515zm-138.007-66.641c1.301 1.284 2.566 2.229 3.178 3.49.878 1.81-.08 3.199-1.95 3.741-1.746.506-8.102-4.868-7.517-6.509 1.297-3.642 3.787-1.729 6.289-.723zm121.538 3.946c.914-3.655 2.293-3.779 4.07-.989.824 1.294.957 2.755.905 4.258-.073 2.125-.962 3.574-3.248 3.364-2.337-.215-2.973-1.684-2.259-3.859.253-.769.344-1.591.532-2.774zM232.659 119.55c-1.225 2.166-2.259 4.278-4.903 3.913-1.32-.182-1.745-1.378-1.861-2.629-.21-2.264.668-4.048 2.789-4.758 2.612-.874 3.554.927 3.976 3.474zM218.45 265.603c-.852.101-1.368.196-1.847.101-1.737-.343-3.493-1.129-3.153-3.104.219-1.269 1.88-1.934 3.296-1.271 1.705.799 4.129 1.442 1.704 4.274zm55.76-59.84c-.357-.154-.353-.317-.35-.481.032-1.576.36-2.996 2.217-3.29.651-.103 1.422.156 1.326 1.012-.183 1.634-1.024 2.723-3.193 2.759z" class="B"/><path d="M230.863 285.08c1.137.542.314.566-.385.667-.023-.17.105-.303.385-.667z" class="D"/><path d="M281.142 318.27c-.754 1.062-1.454 1.273-.944-.659.393-.053.558.145.944.659z" class="F"/><path fill="#c3c3c3" d="M289.883 286.819c-.141.327-.467.473-.793.618-.036-.244-.072-.487.058-.939.294-.092.422.023.735.321z"/><path d="M321.804 246.742c-.061.34-.282.521-.504.702-.084-.258-.168-.516-.128-.963.125-.189.471.102.632.261z" class="H"/><path d="M323.497 212.242c-2.704-1.97-.7-3.576.424-5.103.416-.566 1.81-.536 2.23.24 1.375 2.54-1.13 3.354-2.654 4.863z" class="B"/><path d="M306.131 219.169c-.845-.404-.829-.991.268-1.503.356.475.193.89-.268 1.503z" class="F"/></svg>